<svg version="1.1" id="Layer_1" xmlns="http://www.w3.org/2000/svg" xmlns:xlink="http://www.w3.org/1999/xlink" x="0px" y="0px"
	 width="100%" viewBox="0 0 448 336" enable-background="new 0 0 448 336" xml:space="preserve">
<path fill="teal" opacity="1.000000" stroke="none" 
	d="
M238.896622,266.223145 
	C217.864258,269.135712 198.318924,266.063293 180.086960,255.820282 
	C178.034531,254.667191 176.659317,254.891113 174.739883,256.249298 
	C148.098831,275.100708 108.729477,265.569153 92.640984,236.554245 
	C83.653008,220.344818 81.705490,203.002808 83.209465,184.833878 
	C84.872803,164.739685 88.758293,145.183334 97.824020,127.136627 
	C120.014954,82.962219 155.191895,55.238846 204.451141,48.119537 
	C244.512360,42.329594 281.177307,52.725044 313.282257,77.584000 
	C338.691284,97.258278 356.938049,122.218781 366.349823,153.204987 
	C368.914093,161.647385 370.116302,170.400375 371.169098,179.150024 
	C371.343262,180.597412 371.543274,182.130859 370.652893,183.500656 
	C368.975189,184.111496 368.255310,182.751007 367.347595,181.876663 
	C358.349884,173.209686 350.310455,163.622696 341.677368,154.606064 
	C336.675232,149.381653 334.438232,141.604111 330.462189,135.286880 
	C310.535065,103.626312 283.489441,81.708054 246.090988,73.977852 
	C201.605667,64.782814 155.022827,84.382637 130.256500,122.500404 
	C124.106606,131.965683 119.458748,141.966339 116.160049,152.677353 
	C115.770416,153.942505 115.479401,155.246902 115.264801,156.553177 
	C115.164139,157.165939 115.354088,157.826431 115.412117,158.462967 
	C117.744301,159.485474 119.396286,157.978668 121.146851,157.275772 
	C149.174210,146.021912 179.238388,155.894516 194.163712,182.050308 
	C202.680817,196.976059 203.258484,213.203735 198.033661,229.419739 
	C196.585327,233.914886 197.781677,235.604172 201.667068,237.252075 
	C214.464935,242.679977 227.552505,242.766632 240.878433,239.974609 
	C248.034225,238.475327 248.400131,238.853485 247.792465,246.372040 
	C247.524490,249.687668 247.379120,253.021851 247.369858,256.348145 
	C247.342880,266.042358 247.625015,264.287354 238.896622,266.223145 
M115.423965,222.996140 
	C125.006622,239.080383 141.690796,245.229980 157.126678,238.367264 
	C171.325516,232.054550 178.556259,214.929855 173.460724,199.683136 
	C168.155273,183.808243 152.091370,175.038223 135.153732,178.769608 
	C114.925980,183.225800 106.131226,202.341125 115.423965,222.996140 
z"/>
<path fill="teal" opacity="1.000000" stroke="none" 
	d="
M269.813110,106.171013 
	C271.200104,102.150826 269.870300,98.122040 271.660492,94.312805 
	C275.274414,94.803391 277.181305,97.501648 279.273529,99.671097 
	C293.379211,114.297401 306.428925,129.866989 319.714569,145.225403 
	C340.188019,168.893082 360.676544,192.547745 381.147461,216.217621 
	C382.431091,217.701828 384.111145,218.936111 384.487274,221.077835 
	C384.012238,222.643997 382.535370,222.842880 381.352203,223.183441 
	C375.281647,224.930756 369.171814,226.541031 363.083954,228.228958 
	C359.989380,229.086960 357.793854,228.132141 355.714569,225.607101 
	C349.684967,218.284897 343.314331,211.243835 337.271149,203.932404 
	C335.060852,201.258240 332.864166,200.481445 329.506500,201.565948 
	C316.690430,205.705460 303.831848,209.719376 290.932007,213.589722 
	C287.535980,214.608658 286.211151,216.369202 286.036285,219.946320 
	C285.630768,228.242996 284.653442,236.510086 284.116089,244.802673 
	C283.846252,248.967224 282.242737,251.584381 277.960663,252.605331 
	C272.467133,253.915100 267.078735,255.659622 261.610443,257.083893 
	C258.343628,257.934753 256.793549,257.269012 257.174988,253.135361 
	C258.885132,234.601303 260.118958,216.023788 261.752075,197.481979 
	C263.151031,181.598587 264.978760,165.753067 266.394501,149.870987 
	C267.678223,135.469864 268.661835,121.042000 269.813110,106.171013 
M300.108459,161.378571 
	C297.437592,158.896057 295.776093,155.274704 291.411224,153.522430 
	C290.695404,164.111145 290.009552,174.140640 289.345764,184.171585 
	C289.209625,186.228882 289.685913,188.238464 292.267670,187.431442 
	C299.918823,185.039825 307.767120,183.186584 315.687103,179.760880 
	C310.403503,173.526917 305.484283,167.722870 300.108459,161.378571 
z"/>
<path fill="teal" opacity="1.000000" stroke="none" 
	d="
M207.118408,317.216492 
	C187.938293,314.398743 169.892136,309.431183 153.166428,300.294647 
	C142.719193,294.587738 133.174881,287.689636 125.177757,278.793823 
	C124.107895,277.603760 122.491928,276.705658 122.651871,274.328247 
	C125.589478,274.826965 128.503281,275.184998 131.351501,275.831879 
	C138.679840,277.496246 146.001205,276.847931 153.140594,275.215637 
	C157.232758,274.279999 160.347977,275.027283 163.918396,276.956482 
	C196.668442,294.652283 230.920944,298.402496 266.068481,285.703033 
	C294.308136,275.499512 314.997101,256.518036 326.309082,228.222290 
	C328.118652,223.695847 329.104767,218.840210 330.460663,214.174210 
	C332.934326,214.462433 333.447845,216.287262 334.482635,217.474396 
	C338.747559,222.367188 342.585632,227.698502 347.274658,232.135071 
	C351.349396,235.990463 351.316650,239.294418 348.863708,243.905487 
	C330.243225,278.908630 302.369141,302.479187 263.938446,313.073700 
	C245.441757,318.172791 226.637817,319.677246 207.118408,317.216492 
z"/>
<path fill="teal" opacity="1.000000" stroke="none" 
	d="
M153.458450,135.556061 
	C166.187592,115.255783 184.795212,104.335442 207.415466,99.779190 
	C223.488342,96.541733 239.466919,97.270454 255.100098,102.624725 
	C257.182037,103.337761 259.562073,103.961594 259.236023,106.778641 
	C258.287048,114.977837 258.822144,123.331917 256.950989,132.115570 
	C249.480347,128.028580 242.170532,124.848801 234.226883,123.853210 
	C211.812378,121.043953 192.615494,126.597412 179.212402,146.064789 
	C177.200958,148.986313 175.477890,149.785019 172.316849,148.023239 
	C166.749939,144.920532 160.702393,143.128983 154.391006,142.247589 
	C153.232773,142.085861 152.051453,141.996429 151.312851,140.727005 
	C151.005539,138.789673 152.479416,137.462036 153.458450,135.556061 
z"/>
</svg>