<svg version="1.1" id="Layer_1" xmlns="http://www.w3.org/2000/svg" xmlns:xlink="http://www.w3.org/1999/xlink" x="0px" y="0px"
	 width="100%" viewBox="0 0 1024 1024" enable-background="new 0 0 1024 1024" xml:space="preserve">
<path fill="#000000" opacity="1.000000" stroke="none" 
	d="
M1025.000000,597.000000 
	C1025.000000,659.688110 1025.000000,722.376221 1024.656494,785.687012 
	C1020.987549,788.512024 1017.311096,788.270691 1013.678284,787.618469 
	C1009.014099,786.781311 1004.426453,787.913879 1001.734802,791.230103 
	C994.516785,800.123169 987.421082,809.502197 985.170288,820.973755 
	C983.260437,830.707947 978.387878,833.031982 970.457703,832.844788 
	C965.579041,832.729614 961.688416,834.415527 958.164429,837.400513 
	C952.081970,842.552490 946.152832,847.837524 941.265381,854.231873 
	C938.012573,858.487610 933.099243,861.287781 928.123413,861.555420 
	C921.414062,861.916382 916.332031,863.932556 912.174377,869.129578 
	C911.018250,870.574707 908.882568,871.313232 907.094666,872.161926 
	C900.970642,875.069092 894.163940,876.177795 888.442932,880.317139 
	C876.989441,888.604065 865.189026,896.393372 851.533569,900.818359 
	C849.529175,901.467896 847.573425,902.692932 845.971619,904.084900 
	C839.430603,909.768982 832.692993,914.744751 823.260315,913.137695 
	C822.649292,913.033569 821.928894,913.287842 821.315674,913.522644 
	C810.485962,917.669006 798.436035,917.733582 788.164551,923.932922 
	C778.717529,929.634827 768.056641,932.353516 757.586731,935.682678 
	C746.055481,939.349243 735.133667,944.857788 723.121338,947.257446 
	C716.023865,948.675293 709.314575,951.574585 703.626709,955.952454 
	C689.097534,967.135315 672.237244,970.348938 654.588806,972.095276 
	C640.870911,973.452637 627.261597,976.112183 614.129883,980.484314 
	C602.604736,984.321533 592.171753,990.759277 580.607117,994.694702 
	C568.530579,998.804138 560.942139,1012.059875 562.000000,1025.000000 
	C443.311890,1025.000000 324.623810,1025.000000 205.455566,1024.703613 
	C203.958542,1020.637390 203.827927,1016.878235 205.240570,1013.176331 
	C206.383102,1010.182129 205.778946,1007.189270 204.900146,1004.374512 
	C202.761032,997.523071 198.818649,991.484680 195.437790,985.233276 
	C192.818802,980.390686 187.031662,980.281128 184.569397,984.824524 
	C181.664856,990.184082 176.634750,989.750793 172.019348,989.929871 
	C167.649353,990.099487 167.891312,985.507812 167.030838,982.928650 
	C165.978500,979.774353 164.426285,978.734375 161.525497,978.606018 
	C160.571274,980.753967 161.234436,982.720581 161.214096,984.676453 
	C161.121460,993.588318 163.040939,1002.776978 154.419800,1009.785889 
	C149.400070,1013.866821 149.547836,1019.897217 153.000000,1025.000000 
	C129.645233,1025.000000 106.290474,1025.000000 82.482887,1024.687500 
	C82.671333,1015.118347 81.541573,1006.438416 74.230309,999.670959 
	C72.775993,998.324829 72.839287,996.328979 72.696533,994.524170 
	C71.394981,978.068298 65.207802,962.876038 59.979500,947.526245 
	C55.912037,935.584778 50.789436,924.041992 48.641144,911.474731 
	C47.465836,904.599487 45.654606,897.816528 42.081936,891.686707 
	C40.217918,888.488525 39.005005,885.037476 38.183395,881.468262 
	C36.385899,873.659424 33.497921,866.223083 30.764034,858.722656 
	C28.749741,853.196472 24.956520,849.087952 20.700848,845.323181 
	C18.782835,843.626404 15.830398,841.860474 13.931275,843.463867 
	C9.992882,846.788940 4.872693,847.782227 1.000000,851.000000 
	C1.000000,637.645203 1.000000,424.290466 1.347633,210.323914 
	C30.782436,200.080902 59.833294,190.338303 88.964272,180.841476 
	C151.500946,160.454239 214.078125,140.191208 276.640289,119.882141 
	C338.406952,99.831314 400.120758,79.615425 461.960083,59.791180 
	C514.771973,42.860931 567.727051,26.377119 620.624756,9.715013 
	C626.142456,7.977021 630.895691,5.038837 635.000000,1.000000 
	C636.714355,1.000000 638.428772,1.000000 640.413818,1.326830 
	C635.776245,20.898697 622.722168,33.369534 606.361938,43.183338 
	C603.387512,44.967552 600.630371,47.219410 598.084229,49.589771 
	C593.068115,54.259548 593.780151,57.037556 600.294434,58.765221 
	C603.510010,59.618011 606.760254,60.508430 610.051270,60.873924 
	C617.730469,61.726768 621.904663,65.686897 624.523193,73.130516 
	C627.341614,81.142441 634.239624,85.841423 642.542175,80.105873 
	C647.271179,76.838989 651.295837,77.779922 655.474792,81.692490 
	C660.088440,86.012070 664.442566,90.699486 672.106140,90.185234 
	C677.270325,89.838707 682.314697,95.671143 682.472168,100.678467 
	C682.617920,105.314903 682.915710,110.403862 680.271545,114.304008 
	C675.816833,120.874794 678.321167,127.501770 680.296753,133.352966 
	C682.537659,139.989883 683.713928,146.774246 685.501099,153.452164 
	C688.658936,165.251877 691.978638,176.930283 702.252380,184.946640 
	C703.738525,186.106247 705.073853,187.741409 704.662170,189.638031 
	C703.225220,196.257080 706.984375,197.102615 712.219482,197.352844 
	C718.110229,197.634399 723.351379,199.225204 724.982605,206.237228 
	C725.580933,208.809082 727.909790,210.642410 730.425354,211.806915 
	C734.536438,213.709915 737.210632,212.155792 737.795410,207.636368 
	C738.204041,204.478714 736.718872,201.823380 735.747253,199.001358 
	C733.374146,192.108719 735.877625,188.022461 743.026245,187.129120 
	C745.749268,186.788834 748.138306,185.968430 750.287842,184.179611 
	C758.875183,177.033630 764.916321,168.598801 766.553650,157.089233 
	C768.303162,144.790421 767.933228,132.754196 762.960144,121.397659 
	C760.312256,115.350845 758.383545,109.418877 757.629028,102.863419 
	C755.764954,86.668076 753.448792,70.745644 745.767944,55.737789 
	C740.284729,45.024143 739.614807,33.019684 745.983887,21.610102 
	C748.325562,17.415131 749.995056,12.839862 751.897034,8.406294 
	C753.143738,5.500353 752.966187,2.870268 750.000000,1.000000 
	C752.041687,1.000000 754.083313,1.000000 756.734680,1.309670 
	C764.613708,19.137436 772.000305,36.607998 779.127991,54.183559 
	C793.764771,90.275269 809.516602,125.902184 823.755432,162.163300 
	C832.148987,183.538757 841.455505,204.554245 850.219727,225.785995 
	C865.716003,263.326324 881.065308,300.927307 896.564758,338.466309 
	C907.997070,366.154816 919.671387,393.743591 931.055054,421.451904 
	C945.221191,455.932770 959.230347,490.478271 973.247803,525.020020 
	C983.010071,549.076355 992.692871,573.165039 1002.363708,597.258362 
	C1004.686035,603.043884 1005.210327,603.360901 1011.224182,601.418213 
	C1015.812988,599.935852 1020.407837,598.472046 1025.000000,597.000000 
M716.406677,246.948975 
	C704.093933,214.049026 691.793884,181.144333 679.463318,148.251038 
	C672.916748,130.787231 666.160950,113.399498 659.847229,95.852318 
	C658.184509,91.231232 656.144592,90.475296 651.757935,92.122849 
	C645.378601,94.518784 638.748108,96.240707 632.244934,98.313225 
	C573.556763,117.016670 514.900757,135.821655 456.179108,154.419266 
	C409.539856,169.190323 362.813782,183.686996 316.141052,198.352493 
	C268.510498,213.318939 220.897812,228.342300 173.277618,243.341660 
	C155.179413,249.042206 137.099792,254.802811 118.970444,260.402527 
	C114.936790,261.648407 113.420944,263.714569 115.143082,267.760498 
	C115.596367,268.825439 115.797379,269.994965 116.164978,271.099609 
	C130.514862,314.220032 144.897568,357.329590 159.217972,400.459839 
	C173.121338,442.334015 186.914566,484.244843 200.844986,526.110046 
	C211.252945,557.389099 221.881409,588.594849 232.269135,619.880615 
	C246.069031,661.443176 259.768494,703.039246 273.440796,744.644043 
	C288.257294,789.730652 303.032410,834.830994 317.747650,879.950806 
	C325.390289,903.384583 332.962341,926.842712 340.332672,950.363037 
	C341.798828,955.041992 343.839844,955.816406 348.297455,954.174133 
	C359.076904,950.202759 370.037628,946.725342 380.908630,943.000305 
	C418.393921,930.155579 455.874878,917.298096 493.352020,904.429565 
	C521.228027,894.857727 549.072021,885.192200 576.972412,875.692017 
	C616.697144,862.165649 656.483337,848.819641 696.201111,835.273010 
	C739.550476,820.487671 782.837830,805.520386 826.179688,790.712769 
	C850.761353,782.314514 875.405762,774.099915 900.004395,765.751221 
	C906.134155,763.670837 906.316833,763.216980 904.163147,757.219421 
	C893.698486,728.077026 883.299561,698.910461 872.703430,669.815796 
	C857.603699,628.355530 842.383545,586.938965 827.156860,545.525085 
	C812.390503,505.363129 797.569031,465.221405 782.737427,425.083466 
	C770.791199,392.753937 758.832458,360.428925 746.807495,328.128632 
	C736.816223,301.291168 726.720459,274.492615 716.406677,246.948975 
M113.124840,839.250244 
	C103.922218,809.524719 95.257378,779.631287 85.308739,750.139343 
	C84.783546,748.582397 83.887489,747.131470 83.036003,745.707825 
	C81.435310,743.031555 79.340096,742.650146 76.608810,744.655579 
	C76.806374,745.427368 76.969696,746.209412 77.206245,746.968689 
	C83.489578,767.136169 89.442627,787.408508 95.548637,807.625610 
	C99.775360,821.620361 104.391724,835.520630 108.230217,849.661194 
	C110.875572,859.406311 113.933968,869.097900 116.893829,878.780701 
	C122.093422,895.790588 126.651558,912.968140 131.472412,930.076416 
	C133.431015,937.027100 133.760788,944.634338 140.254227,949.516052 
	C138.249283,952.028748 135.140778,951.784607 133.113495,953.496643 
	C132.221542,954.249878 131.244247,955.037720 131.835739,956.419373 
	C132.208893,957.290955 133.062424,957.661377 133.900040,957.479126 
	C139.088303,956.350037 144.269440,955.183472 149.428909,953.930298 
	C150.609985,953.643433 151.516159,952.788818 151.341858,951.381592 
	C151.203964,950.268311 150.428680,949.483154 149.371323,949.424500 
	C145.541473,949.212158 145.402939,946.793213 145.677521,943.835815 
	C145.961105,940.781433 144.824615,937.925964 143.891586,935.087708 
	C140.619125,925.132568 136.851089,915.354675 133.803970,905.310364 
	C127.184479,883.490356 120.205399,861.779480 113.124840,839.250244 
M10.986055,523.540833 
	C10.789259,528.389709 10.786855,533.243652 12.591221,537.838196 
	C15.037253,544.066589 16.129417,550.694092 18.256824,556.981567 
	C22.304842,568.945312 25.605644,581.130127 29.486347,593.133606 
	C34.447392,608.478760 39.880814,623.662781 43.585033,639.398621 
	C45.872257,649.114929 50.359562,658.192078 52.268051,668.043701 
	C52.390476,668.675598 52.726490,669.299988 53.087238,669.845886 
	C54.414078,671.853577 56.430847,671.913391 58.439316,671.415344 
	C60.779156,670.835022 60.915024,668.866760 60.540222,666.998596 
	C60.050304,664.556641 59.330536,662.154846 58.609322,659.766052 
	C48.985874,627.891235 39.275448,596.043457 30.323828,563.968872 
	C26.520407,550.340820 22.371717,536.807983 18.269144,523.265503 
	C17.669945,521.287537 17.035320,518.979248 14.194880,518.856689 
	C11.149556,518.725464 11.860037,521.410889 10.986055,523.540833 
M59.118587,687.603333 
	C58.450489,694.770813 62.562557,700.684143 64.270554,707.228271 
	C66.708252,716.568176 69.405464,725.825500 72.988869,734.805664 
	C73.918488,737.135254 75.066353,739.258240 78.018730,738.404968 
	C81.037476,737.532593 80.025352,734.967590 79.721115,732.942322 
	C79.401138,730.812256 78.856926,728.698914 78.223495,726.635742 
	C74.854439,715.661987 71.438705,704.702454 68.010101,693.747070 
	C67.218224,691.216797 66.654358,688.530579 65.379555,686.255676 
	C63.454178,682.820007 61.087551,683.181885 59.118587,687.603333 
M786.409241,360.070343 
	C787.241638,361.083435 788.007874,362.463623 789.580078,361.877655 
	C791.095459,361.312897 790.931213,359.734253 790.984802,358.439148 
	C791.074890,356.263641 790.630005,354.182251 789.880005,352.120789 
	C787.620483,345.910522 784.058777,340.208771 782.758911,333.616943 
	C782.397095,331.782227 781.104919,330.383392 779.634521,329.242126 
	C778.291748,328.199951 776.826782,327.274292 775.092041,328.232574 
	C773.668640,329.018860 772.971802,330.457245 773.117126,332.007812 
	C773.581055,336.955719 773.759766,342.243866 777.597290,345.867462 
	C781.699341,349.740906 784.697693,354.041168 786.409241,360.070343 
M152.077454,965.562439 
	C152.279907,964.612976 152.756042,963.627075 152.635437,962.720642 
	C152.209045,959.516296 151.216034,956.713806 147.022141,957.510498 
	C142.967453,958.280762 142.047455,961.466492 142.535538,964.688782 
	C143.179199,968.938293 146.515747,967.654114 149.247147,967.004211 
	C150.041016,966.815308 150.780060,966.395996 152.077454,965.562439 
M9.270231,502.454895 
	C7.804126,502.713654 6.322455,502.906616 4.876060,503.248749 
	C3.267285,503.629211 2.088814,504.583740 2.325322,506.387665 
	C2.572120,508.269989 4.065315,508.700043 5.677223,508.573700 
	C6.991849,508.470673 8.294775,508.169617 9.591598,507.901733 
	C10.922189,507.626862 12.284723,507.263702 12.509075,505.635223 
	C12.762656,503.794586 11.675585,502.895874 9.270231,502.454895 
M115.035561,964.304138 
	C117.796028,964.017578 120.348526,963.463379 120.893639,960.013550 
	C115.510681,959.130676 113.938782,960.170532 115.035561,964.304138 
z"/>
<path fill="#000000" opacity="1.000000" stroke="none" 
	d="
M1025.000000,590.539368 
	C1023.125610,591.691345 1021.235413,592.343201 1019.379639,593.081299 
	C1012.466187,595.830933 1010.146484,594.771362 1006.950012,587.853699 
	C997.885010,568.236023 989.797363,548.221436 981.707703,528.185242 
	C976.984924,516.488037 971.138794,505.158661 966.799805,493.309204 
	C956.892090,466.251678 945.023926,440.029358 933.600769,413.627655 
	C924.681396,393.012787 916.902161,371.959839 908.273926,351.241760 
	C899.130371,329.286133 889.705933,307.444977 880.787903,285.398560 
	C868.245178,254.391312 855.194824,223.592041 842.461548,192.665985 
	C834.038086,172.207581 826.012329,151.581024 817.385559,131.198929 
	C804.218811,100.090218 791.668457,68.720741 778.830505,37.472603 
	C776.681946,32.242672 774.247009,27.126221 772.220032,21.851448 
	C769.233826,14.080473 770.366333,10.846486 777.288940,6.240367 
	C779.876526,7.241390 780.552979,9.777180 781.591431,11.968165 
	C791.374756,32.609264 798.955078,54.168400 807.875977,75.173553 
	C822.133484,108.744560 835.925293,142.513443 849.897644,176.205460 
	C871.717407,228.820404 893.535583,281.436005 915.332153,334.060577 
	C939.677307,392.838348 964.038025,451.609772 988.308105,510.418549 
	C997.456604,532.586182 1006.556824,554.778076 1015.269287,577.118652 
	C1017.664917,583.261719 1020.984192,580.068604 1024.672363,579.120667 
	C1025.000000,582.692932 1025.000000,586.385803 1025.000000,590.539368 
z"/>
<path fill="#000000" opacity="1.000000" stroke="none" 
	d="
M582.055115,398.822571 
	C630.796753,426.630829 658.832642,480.400909 656.444397,518.189392 
	C650.750305,512.193848 645.565186,506.942352 640.627014,501.468140 
	C636.719360,497.136353 633.000061,492.640594 628.451721,488.941071 
	C626.843567,487.633026 626.075195,485.834290 625.179993,484.023285 
	C612.204529,457.772369 594.519287,435.420990 568.763794,420.870361 
	C518.464233,392.453522 458.162384,401.318146 420.487061,449.557861 
	C412.026184,460.391205 405.870392,472.597137 402.212067,485.949158 
	C401.784241,487.510620 400.678986,489.166595 402.110046,490.647400 
	C403.834442,492.431702 405.539459,490.836426 407.139923,490.226532 
	C435.835754,479.291260 464.542908,488.529724 479.952393,514.523254 
	C488.527618,528.988342 489.117279,544.858765 484.634857,560.919006 
	C482.737305,567.717834 482.909668,568.248596 489.488617,570.864258 
	C502.393036,575.994812 515.542480,575.481445 528.804688,572.602173 
	C530.070740,572.327393 531.324829,571.646729 532.737000,572.207642 
	C534.121765,573.477966 533.931763,575.136414 533.868042,576.807983 
	C533.671326,581.965698 533.310242,587.131470 533.446777,592.282654 
	C533.548279,596.111023 532.375000,597.916199 528.355164,598.635254 
	C507.143097,602.429565 486.910065,599.968140 467.791321,589.799255 
	C465.084229,588.359314 462.969086,587.929138 460.049957,589.839661 
	C432.180145,608.079956 394.001678,598.150757 378.162323,568.817505 
	C371.762634,556.965698 368.697479,544.307556 368.705933,530.950134 
	C368.722992,504.085022 373.436890,478.011292 386.528625,454.424988 
	C409.301300,413.397339 443.758209,387.748871 490.703247,380.954834 
	C522.875000,376.298859 553.316772,382.816406 582.055115,398.822571 
M397.408783,541.401794 
	C397.783356,543.698975 397.950226,546.053528 398.566956,548.283752 
	C401.972443,560.599182 409.577850,569.246765 421.961182,572.692871 
	C433.556885,575.919800 444.156250,573.379028 452.630096,564.448669 
	C461.917694,554.660522 463.598602,538.539734 456.839447,526.805481 
	C449.902740,514.762939 435.179443,508.581757 421.151855,511.823029 
	C406.471497,515.215149 399.728210,523.374023 397.408783,541.401794 
z"/>
<path fill="#000000" opacity="1.000000" stroke="none" 
	d="
M666.602417,548.408203 
	C668.149109,550.517944 670.343079,551.830444 670.418152,554.918213 
	C662.850830,558.137085 654.811157,560.025452 646.663696,561.520813 
	C644.337891,561.947693 643.070862,560.280212 641.745117,558.724182 
	C635.484375,551.376343 629.111450,544.122681 622.933960,536.706055 
	C620.945068,534.318176 618.876038,533.659241 615.949158,534.584167 
	C602.785889,538.744019 589.603943,542.846191 576.400452,546.876282 
	C573.622864,547.724121 572.386780,549.292297 572.191345,552.226685 
	C571.616882,560.850769 570.730286,569.453918 570.137451,578.077026 
	C569.881226,581.803650 568.621582,584.335266 564.690857,585.335999 
	C559.056213,586.770447 553.528076,588.620972 547.901001,590.088684 
	C544.583984,590.953857 542.697449,590.458374 543.121399,585.949890 
	C544.863708,567.420105 546.071594,548.840759 547.709717,530.300232 
	C549.420959,510.933136 551.460144,491.595306 553.242188,472.234192 
	C554.475647,458.832825 555.515686,445.413696 556.643188,432.002563 
	C556.766602,430.535034 556.460693,428.976593 557.694031,427.517487 
	C560.752136,426.972107 562.354614,429.478729 564.077209,431.258575 
	C576.588623,444.185547 588.252319,457.877411 600.021912,471.471619 
	C622.144409,497.023926 644.254700,522.586792 666.602417,548.408203 
M589.601624,516.932495 
	C593.274414,515.573242 597.249878,514.972412 601.332703,512.420349 
	C593.829407,503.723267 587.066711,494.940094 578.221313,486.129852 
	C576.268372,497.677856 575.729004,507.734406 575.471985,517.803223 
	C575.410645,520.207458 577.083374,520.808838 579.308105,520.094727 
	C582.471924,519.079163 585.666077,518.158203 589.601624,516.932495 
z"/>
<path fill="#000000" opacity="1.000000" stroke="none" 
	d="
M636.808105,569.593750 
	C635.482910,578.762512 630.506714,585.919250 625.489929,592.895874 
	C601.071838,626.852600 568.077026,646.362000 526.354492,650.438538 
	C489.144684,654.074036 454.932800,645.511963 424.300476,623.805908 
	C418.365692,619.600403 412.963593,614.649353 408.329895,608.144409 
	C412.187561,606.916077 415.329895,608.552246 418.400787,609.010071 
	C425.625824,610.087036 432.720337,609.684021 439.726013,608.046265 
	C443.232819,607.226440 446.095001,607.765991 449.192871,609.475159 
	C481.498840,627.298950 515.446411,631.318176 550.389954,619.255981 
	C578.925476,609.405823 600.079712,590.625183 611.789551,562.251099 
	C613.786011,557.413391 614.941040,552.228455 616.965515,545.639099 
	C623.450745,554.599243 630.190125,561.796631 636.808105,569.593750 
z"/>
<path fill="#000000" opacity="1.000000" stroke="none" 
	d="
M502.542511,456.444550 
	C486.128265,458.952942 473.270844,466.374359 464.438873,480.173798 
	C463.556122,481.553070 462.403809,482.800537 460.806244,482.033325 
	C453.321228,478.438721 445.497223,475.876160 436.674896,474.523224 
	C439.280914,467.563995 442.883362,462.224243 447.383087,457.618378 
	C467.025360,437.512695 491.158997,429.413696 518.943665,431.302429 
	C526.445984,431.812439 533.780823,432.945312 540.948303,435.397095 
	C544.168518,436.498627 545.653137,438.035370 545.340454,441.467377 
	C544.650330,449.041473 544.107422,456.628967 543.411316,465.381592 
	C530.331970,457.820160 517.010803,455.308044 502.542511,456.444550 
z"/>
</svg>